<svg width="283" height="49" viewBox="0 0 283 49" fill="none" xmlns="http://www.w3.org/2000/svg">
<path d="M75.7509 28.4735H69.3802L68.1712 31.4391H64.9161L71.0078 17.5997H74.1233L80.2615 31.4391H76.9599L75.7509 28.4735ZM74.7744 26.0257L72.5888 20.7065L70.4033 26.0257H74.7744Z" fill="#2F2C33"/>
<path d="M95.1418 22.6365C95.1418 25.7433 92.8633 27.6262 89.1897 27.6262H86.4461V31.4391H83.2841V17.5997H89.2362C92.8633 17.5997 95.1418 19.5297 95.1418 22.6365ZM91.9332 22.6365C91.9332 21.1302 90.9567 20.2358 89.0037 20.2358H86.4461V25.0372H89.0502C90.9567 25.0372 91.9332 24.1428 91.9332 22.6365Z" fill="#2F2C33"/>
<path d="M98.3038 24.5167C98.3038 20.3273 101.466 17.3617 105.744 17.3617C108.116 17.3617 110.069 18.2561 111.371 19.8095L109.325 21.6924C108.395 20.6097 107.232 20.0919 105.883 20.0919C103.326 20.0919 101.512 21.9277 101.512 24.5167C101.512 27.1528 103.326 28.9415 105.883 28.9415C107.232 28.9415 108.395 28.3767 109.325 27.294L111.371 29.1769C110.069 30.7774 108.116 31.6717 105.697 31.6717C101.466 31.6717 98.3038 28.7062 98.3038 24.5167Z" fill="#2F2C33"/>
<path d="M123.833 28.4735H117.462L116.253 31.4391H112.998L119.09 17.5997H122.205L128.343 31.4391H125.042L123.833 28.4735ZM122.81 26.0257L120.624 20.7065L118.439 26.0257H122.81Z" fill="#2F2C33"/>
<path d="M140.062 31.4391L137.411 27.5791H137.272H134.528V31.4391H131.366V17.5997H137.272C140.945 17.5997 143.224 19.5297 143.224 22.6365C143.224 24.7077 142.201 26.2611 140.387 27.0143L143.457 31.4862H140.062V31.4391ZM137.086 20.1887H134.482V25.0372H137.086C139.039 25.0372 140.015 24.1428 140.015 22.6365C140.015 21.0831 139.039 20.1887 137.086 20.1887Z" fill="#2F2C33"/>
<path d="M156.523 24.2822H159.406V29.8838C157.918 31.0136 155.825 31.6255 153.872 31.6255C149.548 31.6255 146.386 28.6129 146.386 24.4705C146.386 20.281 149.548 17.3154 153.919 17.3154C156.337 17.3154 158.336 18.1627 159.639 19.7161L157.592 21.599C156.616 20.5164 155.453 20.0456 154.058 20.0456C151.408 20.0456 149.594 21.8344 149.594 24.4705C149.594 27.0595 151.408 28.8953 154.012 28.8953C154.895 28.8953 155.686 28.7541 156.476 28.2834V24.2822H156.523Z" fill="#2F2C33"/>
<path d="M163.08 24.5167C163.08 20.4214 166.242 17.3617 170.567 17.3617C174.891 17.3617 178.053 20.3743 178.053 24.5167C178.053 28.6591 174.845 31.6717 170.567 31.6717C166.242 31.6717 163.08 28.612 163.08 24.5167ZM174.845 24.5167C174.845 21.8807 172.985 20.0919 170.567 20.0919C168.102 20.0919 166.288 21.8807 166.288 24.5167C166.288 27.1528 168.149 28.9415 170.567 28.9415C172.985 28.9415 174.845 27.1528 174.845 24.5167Z" fill="#2F2C33"/>
<path d="M192.608 28.8972V31.4862H182.006V17.5997H192.329V20.1887H185.121V23.2014H191.492V25.6492H185.121V28.8501H192.608V28.8972Z" fill="#2F2C33"/>
<path d="M205.163 31.4391L201.862 26.6377L198.607 31.4391H194.979L200.048 24.3782L195.259 17.5997H198.839L202.001 22.0716L205.07 17.5997H208.511L203.722 24.284L208.837 31.4391H205.163Z" fill="#2F2C33"/>
<path d="M223.531 22.6365C223.531 25.7433 221.252 27.6262 217.579 27.6262H214.835V31.4391H211.673V17.5997H217.579C221.252 17.5997 223.531 19.5297 223.531 22.6365ZM220.322 22.6365C220.322 21.1302 219.346 20.2358 217.393 20.2358H214.789V25.0372H217.393C219.346 25.0372 220.322 24.1428 220.322 22.6365Z" fill="#2F2C33"/>
<path d="M236.04 31.4391L233.389 27.5791H233.25H230.506V31.4391H227.344V17.5997H233.25C236.923 17.5997 239.202 19.5297 239.202 22.6365C239.202 24.7077 238.179 26.2611 236.365 27.0143L239.434 31.4862H236.04V31.4391ZM233.064 20.1887H230.46V25.0372H233.064C235.017 25.0372 235.993 24.1428 235.993 22.6365C235.993 21.0831 235.017 20.1887 233.064 20.1887Z" fill="#2F2C33"/>
<path d="M253.896 28.8972V31.4862H243.294V17.5997H253.617V20.1887H246.409V23.2014H252.78V25.6492H246.409V28.8501H253.896V28.8972Z" fill="#2F2C33"/>
<path d="M256.872 30.0721L257.942 27.6714C259.104 28.5187 260.825 29.1307 262.452 29.1307C264.312 29.1307 265.103 28.5187 265.103 27.6243C265.103 25.0353 257.151 26.8241 257.151 21.6461C257.151 19.2925 259.011 17.3154 262.917 17.3154C264.638 17.3154 266.405 17.7391 267.66 18.5393L266.684 20.9871C265.428 20.2339 264.08 19.9044 262.871 19.9044C261.011 19.9044 260.267 20.6105 260.267 21.5049C260.267 24.0468 268.219 22.3051 268.219 27.389C268.219 29.6955 266.312 31.6726 262.406 31.6726C260.267 31.6726 258.081 31.0136 256.872 30.0721Z" fill="#2F2C33"/>
<path d="M270.916 30.0721L271.985 27.6714C273.148 28.5187 274.868 29.1307 276.496 29.1307C278.356 29.1307 279.146 28.5187 279.146 27.6243C279.146 25.0353 271.195 26.8241 271.195 21.6461C271.195 19.2925 273.055 17.3154 276.961 17.3154C278.681 17.3154 280.448 17.7391 281.704 18.5393L280.727 20.9871C279.472 20.2339 278.123 19.9044 276.914 19.9044C275.054 19.9044 274.31 20.6105 274.31 21.5049C274.31 24.0468 282.262 22.3051 282.262 27.389C282.262 29.6955 280.355 31.6726 276.449 31.6726C274.31 31.6726 272.125 31.0136 270.916 30.0721Z" fill="#2F2C33"/>
<path d="M20.554 21.0813H12.2303C9.06824 21.0813 4.97615 23.2466 3.25561 25.9298C-3.85904 36.8035 3.72062 48.3363 13.9508 48.3363C16.7409 48.3363 19.717 47.489 22.6465 45.512C25.2971 43.7232 27.4361 39.6279 27.4361 36.427V21.0813H20.554ZM20.554 36.2387C20.554 37.4155 20.0425 38.5452 19.159 39.2984C11.8583 45.5591 3.16261 36.8035 9.34725 29.3661C10.0913 28.4717 11.2073 27.9539 12.3698 27.9539H20.554V36.2387Z" fill="#3D6098"/>
<path d="M27.343 27.9534H35.6667C38.8288 27.9534 42.9209 25.7881 44.6414 23.1049C53.7556 9.31268 38.9683 -5.6564 25.3435 3.52275C22.6929 5.31151 20.5539 9.40683 20.5539 12.6078V27.9534H27.343ZM27.343 12.7961C27.343 11.6192 27.8546 10.4895 28.7381 9.73633C36.0387 3.47568 44.7344 12.2783 38.5498 19.6686C37.8058 20.563 36.6897 21.0808 35.5272 21.0808H27.343V12.7961Z" fill="#3D6098"/>
<path opacity="0.5" d="M32.8769 21.0813H27.3433V28.001H32.8769V21.0813Z" fill="url(#paint0_linear)"/>
<path opacity="0.5" d="M20.5541 21.0813H15.0205V27.9539H20.5541V21.0813Z" fill="url(#paint1_linear)"/>
<path d="M7.25474 14.3977C7.20824 8.93726 13.5789 4.98316 19.159 9.7375C20.0425 10.4907 20.554 11.6204 20.554 12.7972V14.3977H27.3897V12.656C27.3897 9.45506 25.2506 5.31267 22.6001 3.57098C11.8118 -3.67821 0.372586 4.04171 0.419087 14.3977H7.25474Z" fill="#3D6098"/>
<defs>
<linearGradient id="paint0_linear" x1="27.3558" y1="24.5186" x2="32.872" y2="24.5186" gradientUnits="userSpaceOnUse">
<stop stop-color="#302072"/>
<stop offset="1" stop-color="#4928B2" stop-opacity="0"/>
</linearGradient>
<linearGradient id="paint1_linear" x1="20.5413" y1="24.5185" x2="15.025" y2="24.5185" gradientUnits="userSpaceOnUse">
<stop stop-color="#302072"/>
<stop offset="1" stop-color="#4928B2" stop-opacity="0"/>
</linearGradient>
</defs>
</svg>
