<svg width="200" xmlns="http://www.w3.org/2000/svg" viewBox="0 0 437.13 59.62">
    <path d="M16.05,5.25h9.76V39.49H47v7.95H16.05Z" fill="#fff" />
    <path d="M57.79,45.79a16,16,0,0,1-6.36-5.94,16.34,16.34,0,0,1-2.29-8.62,16.32,16.32,0,0,1,2.29-8.62,15.92,15.92,0,0,1,6.36-5.94A19.42,19.42,0,0,1,67,14.53a19.23,19.23,0,0,1,9.16,2.14,16,16,0,0,1,6.33,5.94,16.32,16.32,0,0,1,2.29,8.62,16.34,16.34,0,0,1-2.29,8.62,16,16,0,0,1-6.33,5.94,20.76,20.76,0,0,1-18.36,0Zm15.13-8a9.1,9.1,0,0,0,2.32-6.54,9.08,9.08,0,0,0-2.32-6.54A7.8,7.8,0,0,0,67,22.25a7.9,7.9,0,0,0-6,2.44,9,9,0,0,0-2.35,6.54A9,9,0,0,0,61,37.77a7.9,7.9,0,0,0,6,2.44A7.8,7.8,0,0,0,72.92,37.77Z" fill="#fff" />
    <path d="M122.39,15,107.74,49.43q-2.22,5.61-5.51,7.9a13.51,13.51,0,0,1-7.93,2.29,16.47,16.47,0,0,1-5-.78,11.17,11.17,0,0,1-4-2.17L88.43,52c.72.64,1.83.54,2.78.91S93.07,52,94,52a5,5,0,0,0,3.13-.94A7.85,7.85,0,0,0,99.3,48l.12-.3L85.38,15h9.7l9.11,22,9.16-22ZM85.26,52h9v7.61h-9Z" fill="#fff" />
    <path d="M148.72,17.28q4.31,3.27,4.85,10.48L155,46.22l-8.77.67-.31-4q-2.31,4.71-9.52,5.27a15.33,15.33,0,0,1-6.55-.77,9.66,9.66,0,0,1-4.45-3.16,9.21,9.21,0,0,1-1.83-4.94,8.44,8.44,0,0,1,2.85-7.35q3.19-2.85,10.29-3.39l7.46-.58a6,6,0,0,0-2.23-4.57c-1.33-1-3.23-1.42-5.72-1.23a16.54,16.54,0,0,0-5,1.21,13.14,13.14,0,0,0-4.07,2.52l-3.87-6.3a20.36,20.36,0,0,1,6.12-3.37,28.5,28.5,0,0,1,7.52-1.61Q144.42,14,148.72,17.28ZM142.44,40.2a6.14,6.14,0,0,0,2.39-3.48l-.25-3.31-6.44.5q-5.76.44-5.48,4.23a3.39,3.39,0,0,0,1.64,2.74,6.39,6.39,0,0,0,3.95.76A8.15,8.15,0,0,0,142.44,40.2Z" fill="#fff" />
    <path d="M162.29,2.71h9.41V47.44h-9.41Z" fill="#fff" />
    <path d="M186.31,46.81a22.53,22.53,0,0,1-7.51-3.53l3.32-7.35a22.61,22.61,0,0,0,6.45,3.2,24.3,24.3,0,0,0,7.47,1.2q4.17,0,6.15-1.23a3.74,3.74,0,0,0,2-3.29,3.15,3.15,0,0,0-1.17-2.5,8.81,8.81,0,0,0-3-1.6q-1.83-.6-5-1.33a66.61,66.61,0,0,1-7.9-2.29,12.79,12.79,0,0,1-5.27-3.67,9.93,9.93,0,0,1-2.2-6.76,11.72,11.72,0,0,1,2-6.66,13.36,13.36,0,0,1,6-4.73,24.44,24.44,0,0,1,9.8-1.75,32.19,32.19,0,0,1,7.9,1,23.15,23.15,0,0,1,6.75,2.77l-3,7.41a23.48,23.48,0,0,0-11.69-3.31q-4.1,0-6.06,1.32a4,4,0,0,0-2,3.5,3.44,3.44,0,0,0,2.26,3.23,36.36,36.36,0,0,0,6.9,2.08,66.61,66.61,0,0,1,7.9,2.29,13.14,13.14,0,0,1,5.28,3.61,9.75,9.75,0,0,1,2.2,6.7,11.57,11.57,0,0,1-2,6.6,13.63,13.63,0,0,1-6.06,4.73A24.8,24.8,0,0,1,196,48.17,34.29,34.29,0,0,1,186.31,46.81Z" fill="#fff" />
    <path d="M249.36,18.15q3.72,3.62,3.71,10.73V47.44h-9.4V30.32c0-2.57-.57-4.49-1.69-5.75a6.18,6.18,0,0,0-4.88-1.9,7.47,7.47,0,0,0-5.67,2.2c-1.41,1.47-2.11,3.64-2.11,6.54v16h-9.41V2.71h9.41V18.39a12.49,12.49,0,0,1,4.52-2.87,16.45,16.45,0,0,1,5.79-1A13.3,13.3,0,0,1,249.36,18.15Z" fill="#fff" />
    <path d="M262.05,9a4.89,4.89,0,0,1-1.62-3.73,4.89,4.89,0,0,1,1.62-3.74A6,6,0,0,1,266.27,0a6.08,6.08,0,0,1,4.22,1.45,4.61,4.61,0,0,1,1.63,3.61A5.1,5.1,0,0,1,270.49,9a5.86,5.86,0,0,1-4.22,1.54A6,6,0,0,1,262.05,9Zm-.48,6H271V47.44h-9.41Z" fill="#fff" />
    <path d="M307.12,16.61a14.92,14.92,0,0,1,5.81,5.85A17.6,17.6,0,0,1,315,31.23,17.62,17.62,0,0,1,312.93,40a14.92,14.92,0,0,1-5.81,5.85,16.64,16.64,0,0,1-8.23,2.08q-6.21,0-9.77-3.92V59.14h-9.4V15h9v3.74q3.49-4.21,10.19-4.22A16.53,16.53,0,0,1,307.12,16.61ZM303.2,37.77a9.14,9.14,0,0,0,2.32-6.54,9.12,9.12,0,0,0-2.32-6.54,8.45,8.45,0,0,0-11.88,0A9.08,9.08,0,0,0,289,31.23a9.1,9.1,0,0,0,2.32,6.54,8.45,8.45,0,0,0,11.88,0Z" fill="#fff" />
    <path d="M348.71,16.61a15,15,0,0,1,5.82,5.85,17.6,17.6,0,0,1,2.11,8.77A17.62,17.62,0,0,1,354.53,40a15,15,0,0,1-5.82,5.85,16.58,16.58,0,0,1-8.23,2.08q-6.21,0-9.76-3.92V59.14h-9.41V15h9v3.74q3.51-4.21,10.19-4.22A16.48,16.48,0,0,1,348.71,16.61Zm-3.92,21.16a9.1,9.1,0,0,0,2.32-6.54,9.08,9.08,0,0,0-2.32-6.54,8.44,8.44,0,0,0-11.87,0,9.08,9.08,0,0,0-2.32,6.54,9.1,9.1,0,0,0,2.32,6.54,8.44,8.44,0,0,0,11.87,0Z" fill="#fff" />
    <path d="M394.5,33.88H370a7.61,7.61,0,0,0,3.14,4.76,10.32,10.32,0,0,0,6.15,1.75,12.54,12.54,0,0,0,4.49-.75,10.9,10.9,0,0,0,3.64-2.38l5,5.42Q387.8,47.93,379,47.93a21.24,21.24,0,0,1-9.7-2.14,15.64,15.64,0,0,1-6.51-5.94,16.34,16.34,0,0,1-2.29-8.62,16.53,16.53,0,0,1,2.26-8.59,15.78,15.78,0,0,1,6.21-6,19.22,19.22,0,0,1,17.45-.09,15,15,0,0,1,6.06,5.88,17.57,17.57,0,0,1,2.2,8.89C394.68,31.47,394.62,32.31,394.5,33.88Zm-22-10.43a7.75,7.75,0,0,0-2.65,4.94h16a7.81,7.81,0,0,0-2.66-4.91,7.93,7.93,0,0,0-5.3-1.84A8.15,8.15,0,0,0,372.49,23.45Z" fill="#fff" />
    <path d="M414.48,15.73a17,17,0,0,1,6.6-1.2v8.68c-1-.08-1.75-.12-2.11-.12a8.62,8.62,0,0,0-6.33,2.26q-2.29,2.26-2.29,6.78V47.44H401V15h9v4.28A10.45,10.45,0,0,1,414.48,15.73Z" fill="#fff" />
    <rect y="37.67" width="9.77" height="9.77" rx="4.89" fill="#fff" />
    <rect x="427.35" y="13.78" width="9.77" height="9.77" rx="4.89" fill="#fff" />
</svg>