



<svg width="270" height="40" xmlns="http://www.w3.org/2000/svg" viewBox="0 0 510.11 69.58">
    <path d="M18.72,6.12h11.4v40H54.81v9.29H18.72Z" />
    <path d="M67.44,53.43A18.45,18.45,0,0,1,60,46.5a19.11,19.11,0,0,1-2.68-10.06A19.14,19.14,0,0,1,60,26.38a18.59,18.59,0,0,1,7.42-6.93,24.19,24.19,0,0,1,21.42,0,18.7,18.7,0,0,1,7.39,6.93,19.13,19.13,0,0,1,2.67,10.06A19.1,19.1,0,0,1,96.25,46.5a18.56,18.56,0,0,1-7.39,6.93,24.19,24.19,0,0,1-21.42,0ZM85.1,44.07a10.64,10.64,0,0,0,2.71-7.63,10.64,10.64,0,0,0-2.71-7.63A9.15,9.15,0,0,0,78.17,26a9.26,9.26,0,0,0-7,2.85,10.53,10.53,0,0,0-2.74,7.63,10.53,10.53,0,0,0,2.74,7.63,9.26,9.26,0,0,0,7,2.85A9.15,9.15,0,0,0,85.1,44.07Z" />
    <path d="M142.81,17.52,125.72,57.69q-2.61,6.54-6.44,9.21A15.77,15.77,0,0,1,110,69.58a19.25,19.25,0,0,1-5.84-.92,12.89,12.89,0,0,1-4.71-2.53l3.7-5.44c.84.75,2.14.64,3.24,1.06s2.18-1,3.26-1a5.8,5.8,0,0,0,3.66-1.09A9.23,9.23,0,0,0,115.87,56l.14-.35L99.62,17.52H111l10.62,25.67,10.69-25.67ZM99.48,60.69H110v8.89H99.48Z" />
    <path d="M174.76,21.14q4.71,4.18,4.71,12.63v21.6H169.2V50.65q-3.09,5.28-11.54,5.28a17.8,17.8,0,0,1-7.56-1.48,11.26,11.26,0,0,1-4.89-4.08,10.64,10.64,0,0,1-1.69-5.91,9.86,9.86,0,0,1,4-8.3q4-3,12.27-3h8.73a7,7,0,0,0-2.18-5.52q-2.19-1.93-6.55-1.93a18.88,18.88,0,0,0-5.94.95,15.6,15.6,0,0,0-5,2.57l-3.94-7.67a23.69,23.69,0,0,1,7.42-3.38,33.17,33.17,0,0,1,8.9-1.2Q170,17,174.76,21.14Zm-9.36,26.1a7.18,7.18,0,0,0,3.1-3.83V39.54H161c-4.5,0-6.75,1.47-6.75,4.43a3.94,3.94,0,0,0,1.65,3.34,7.44,7.44,0,0,0,4.54,1.23A9.52,9.52,0,0,0,165.4,47.24Z" />
    <path d="M189.39,3.17h11v52.2h-11Z" />
    <path d="M217.41,54.63a26.66,26.66,0,0,1-8.76-4.12l3.87-8.58a26.23,26.23,0,0,0,7.53,3.73,28.18,28.18,0,0,0,8.72,1.4q4.86,0,7.18-1.44a4.35,4.35,0,0,0,2.32-3.83,3.68,3.68,0,0,0-1.37-2.92A10.39,10.39,0,0,0,233.38,37c-1.43-.46-3.36-1-5.8-1.54a77.64,77.64,0,0,1-9.22-2.68,14.94,14.94,0,0,1-6.15-4.29,11.54,11.54,0,0,1-2.57-7.88A13.67,13.67,0,0,1,212,12.84a15.63,15.63,0,0,1,7-5.52,28.57,28.57,0,0,1,11.43-2,38,38,0,0,1,9.22,1.12,27.26,27.26,0,0,1,7.88,3.24L244,18.29a27.46,27.46,0,0,0-13.65-3.87q-4.78,0-7.07,1.55A4.73,4.73,0,0,0,221,20.05a4,4,0,0,0,2.64,3.76,41.76,41.76,0,0,0,8.06,2.43,80.17,80.17,0,0,1,9.21,2.67A15.32,15.32,0,0,1,247,33.13a11.35,11.35,0,0,1,2.57,7.81,13.46,13.46,0,0,1-2.36,7.71,15.85,15.85,0,0,1-7.07,5.52,28.84,28.84,0,0,1-11.47,2A40.52,40.52,0,0,1,217.41,54.63Z" fill="#5123b6" />
    <path d="M291,21.18q4.32,4.21,4.32,12.52V55.37h-11v-20c0-3-.66-5.25-2-6.72a7.24,7.24,0,0,0-5.7-2.22A8.73,8.73,0,0,0,270.07,29c-1.65,1.71-2.47,4.26-2.47,7.63V55.37h-11V3.17h11V21.46a14.56,14.56,0,0,1,5.28-3.34A18.91,18.91,0,0,1,279.63,17Q286.66,17,291,21.18Z" fill="#5123b6" />
    <path d="M305.8,10.48a5.71,5.71,0,0,1-1.9-4.36,5.73,5.73,0,0,1,1.9-4.36A7,7,0,0,1,310.73,0a7.1,7.1,0,0,1,4.92,1.69,5.39,5.39,0,0,1,1.9,4.22,6,6,0,0,1-1.9,4.54,7.72,7.72,0,0,1-9.85,0Zm-.56,7h11V55.37h-11Z" fill="#5123b6" />
    <path d="M358.39,19.38a17.42,17.42,0,0,1,6.79,6.83,20.6,20.6,0,0,1,2.46,10.23,20.64,20.64,0,0,1-2.46,10.24,17.46,17.46,0,0,1-6.79,6.82,19.29,19.29,0,0,1-9.6,2.43q-7.25,0-11.4-4.57V69h-11V17.52H336.9v4.36Q341,17,348.79,17A19.29,19.29,0,0,1,358.39,19.38Zm-4.57,24.69a10.64,10.64,0,0,0,2.71-7.63,10.64,10.64,0,0,0-2.71-7.63,9.85,9.85,0,0,0-13.86,0,10.6,10.6,0,0,0-2.71,7.63A10.6,10.6,0,0,0,340,44.07a9.85,9.85,0,0,0,13.86,0Z" fill="#5123b6" />
    <path d="M406.93,19.38a17.42,17.42,0,0,1,6.79,6.83,20.6,20.6,0,0,1,2.46,10.23,20.64,20.64,0,0,1-2.46,10.24,17.46,17.46,0,0,1-6.79,6.82,19.29,19.29,0,0,1-9.6,2.43q-7.24,0-11.4-4.57V69H375V17.52h10.48v4.36Q389.52,17,397.33,17A19.29,19.29,0,0,1,406.93,19.38Zm-4.57,24.69a10.64,10.64,0,0,0,2.71-7.63,10.64,10.64,0,0,0-2.71-7.63,9.85,9.85,0,0,0-13.86,0,10.6,10.6,0,0,0-2.71,7.63,10.6,10.6,0,0,0,2.71,7.63,9.85,9.85,0,0,0,13.86,0Z" fill="#5123b6" />
    <path d="M460.36,39.54H431.73a8.89,8.89,0,0,0,3.65,5.55,12.15,12.15,0,0,0,7.18,2,14.65,14.65,0,0,0,5.24-.87,13,13,0,0,0,4.26-2.78l5.84,6.33q-5.36,6.12-15.62,6.12A24.67,24.67,0,0,1,431,53.43a18.31,18.31,0,0,1-7.6-6.93,19.1,19.1,0,0,1-2.67-10.06,19.33,19.33,0,0,1,2.64-10,18.48,18.48,0,0,1,7.25-7,21.3,21.3,0,0,1,10.3-2.5,21,21,0,0,1,10.06,2.4A17.42,17.42,0,0,1,458,26.21a20.43,20.43,0,0,1,2.57,10.37C460.57,36.72,460.5,37.71,460.36,39.54ZM434.68,27.37a8.93,8.93,0,0,0-3.09,5.76h18.64a9.09,9.09,0,0,0-3.1-5.73,9.25,9.25,0,0,0-6.19-2.14A9.45,9.45,0,0,0,434.68,27.37Z" fill="#5123b6" />
    <path d="M483.68,18.36a19.66,19.66,0,0,1,7.7-1.41V27.09q-1.83-.15-2.46-.15a10.08,10.08,0,0,0-7.39,2.64q-2.67,2.64-2.67,7.92V55.37h-11V17.52h10.48v5A12.18,12.18,0,0,1,483.68,18.36Z" fill="#5123b6" />
    <rect y="43.96" width="11.4" height="11.4" rx="5.7" />
    <rect x="498.7" y="16.08" width="11.4" height="11.4" rx="5.7" fill="#5123b6" />
</svg>
